<?xml version="1.0" standalone="no"?>
<!DOCTYPE svg PUBLIC "-//W3C//DTD SVG 20010904//EN"
 "http://www.w3.org/TR/2001/REC-SVG-20010904/DTD/svg10.dtd">
<svg version="1.0" xmlns="http://www.w3.org/2000/svg"
 width="173.000000pt" height="173.000000pt" viewBox="0 0 173.000000 173.000000"
 preserveAspectRatio="xMidYMid meet">
<metadata>
Created by potrace 1.11, written by Peter Selinger 2001-2013
</metadata>
<g transform="translate(0.000000,173.000000) scale(0.100000,-0.100000)"
fill="#000000" stroke="none">
<path d="M413 1716 c-46 -21 -86 -63 -127 -133 -29 -49 -49 -70 -102 -103
-118 -74 -151 -129 -140 -232 17 -168 142 -267 356 -283 224 -16 240 -19 240
-41 0 -17 7 -16 -175 -19 -204 -4 -272 -21 -353 -90 -93 -80 -126 -195 -82
-288 13 -27 39 -60 59 -75 66 -50 111 -103 140 -165 15 -34 39 -72 52 -84 85
-77 224 -71 319 14 86 77 118 147 150 327 11 61 24 114 29 119 16 16 28 -26
25 -88 -14 -258 3 -395 63 -521 l25 -54 80 0 80 0 -36 64 c-34 61 -94 201
-101 235 -1 9 -8 34 -13 56 -25 96 -32 279 -12 299 17 17 26 -6 44 -106 46
-249 162 -395 317 -399 104 -2 162 39 219 155 33 66 51 91 83 112 62 42 102
88 115 132 16 52 15 70 -4 130 -25 76 -90 144 -181 189 l-77 38 -177 0 c-122
0 -182 4 -190 12 -19 19 18 30 126 37 188 13 267 29 342 73 79 46 132 130 140
224 5 46 1 66 -19 111 -26 55 -45 73 -150 138 -34 21 -56 45 -75 81 -52 97
-108 138 -204 146 -49 5 -67 2 -111 -20 -137 -67 -203 -184 -208 -367 -4 -160
-12 -220 -30 -220 -19 0 -28 39 -34 146 -13 242 -73 372 -202 435 -58 27 -156
35 -201 15z"/>
<path d="M1677 493 c-4 -3 -7 -11 -7 -16 0 -6 3 -7 7 -4 3 4 12 -1 20 -11 12
-15 13 -14 2 8 -15 32 -14 31 -22 23z"/>
<path d="M1648 454 c-4 -3 -4 -13 -1 -22 4 -9 2 -13 -4 -9 -6 4 -17 -1 -24
-10 -12 -14 -12 -16 0 -8 9 5 19 2 29 -11 13 -18 14 -18 7 4 -5 19 -3 23 12
20 12 -2 18 3 18 17 0 19 -25 32 -37 19z m27 -15 c11 -17 -1 -21 -15 -4 -8 9
-8 15 -2 15 6 0 14 -5 17 -11z"/>
<path d="M1576 371 c-4 -5 -2 -21 4 -36 12 -33 12 -35 -1 -35 -5 0 -7 5 -3 12
5 8 2 9 -9 5 -18 -7 -24 8 -7 16 6 3 5 4 -2 3 -7 -2 -12 -11 -12 -20 1 -9 -3
-16 -8 -16 -6 0 -5 -7 2 -15 16 -19 5 -34 -12 -17 -7 7 -17 12 -22 12 -16 -1
26 -30 42 -30 10 0 13 8 10 25 -4 20 -1 24 16 22 13 -1 21 4 21 13 0 8 8 18
18 22 19 8 24 28 6 28 -5 0 -7 -4 -4 -10 3 -5 -1 -10 -9 -10 -21 0 -31 21 -15
31 9 6 10 9 2 9 -6 0 -14 -4 -17 -9z"/>
<path d="M1470 226 c0 -13 20 -26 41 -26 15 0 10 27 -7 34 -24 9 -34 7 -34 -8z
m35 -14 c-3 -3 -11 0 -18 7 -9 10 -8 11 6 5 10 -3 15 -9 12 -12z"/>
<path d="M1450 193 c0 -9 3 -13 7 -10 3 4 13 1 22 -5 10 -8 9 -4 -3 10 -23 26
-26 27 -26 5z"/>
</g>
</svg>
